<mxfile host="app.diagrams.net" agent="Mozilla/5.0 (X11; Linux x86_64; rv:137.0) Gecko/20100101 Firefox/137.0" version="26.0.15">
  <diagram id="C5RBs43oDa-KdzZeNtuy" name="Page-1">
    <mxGraphModel dx="2514" dy="914" grid="1" gridSize="10" guides="1" tooltips="1" connect="1" arrows="1" fold="1" page="1" pageScale="1" pageWidth="827" pageHeight="1169" math="0" shadow="0">
      <root>
        <mxCell id="WIyWlLk6GJQsqaUBKTNV-0" />
        <mxCell id="WIyWlLk6GJQsqaUBKTNV-1" parent="WIyWlLk6GJQsqaUBKTNV-0" />
        <mxCell id="7LqxHddViOQpiFdT0loC-2" value="" style="endArrow=classic;html=1;rounded=0;exitX=0.171;exitY=0.025;exitDx=0;exitDy=0;exitPerimeter=0;" edge="1" parent="WIyWlLk6GJQsqaUBKTNV-1" target="7LqxHddViOQpiFdT0loC-3">
          <mxGeometry width="50" height="50" relative="1" as="geometry">
            <mxPoint x="43.940000000000055" y="151.7499999999999" as="sourcePoint" />
            <mxPoint x="60" y="100" as="targetPoint" />
          </mxGeometry>
        </mxCell>
        <mxCell id="7LqxHddViOQpiFdT0loC-3" value="Name" style="ellipse;whiteSpace=wrap;html=1;" vertex="1" parent="WIyWlLk6GJQsqaUBKTNV-1">
          <mxGeometry x="-10" y="20" width="60" height="40" as="geometry" />
        </mxCell>
        <mxCell id="7LqxHddViOQpiFdT0loC-4" value="" style="endArrow=classic;html=1;rounded=0;entryX=0.728;entryY=0.97;entryDx=0;entryDy=0;entryPerimeter=0;" edge="1" parent="WIyWlLk6GJQsqaUBKTNV-1" target="7LqxHddViOQpiFdT0loC-5">
          <mxGeometry width="50" height="50" relative="1" as="geometry">
            <mxPoint x="30" y="150" as="sourcePoint" />
            <mxPoint x="-10" y="110" as="targetPoint" />
          </mxGeometry>
        </mxCell>
        <mxCell id="7LqxHddViOQpiFdT0loC-5" value="Age" style="ellipse;whiteSpace=wrap;html=1;" vertex="1" parent="WIyWlLk6GJQsqaUBKTNV-1">
          <mxGeometry x="-70" y="50" width="70" height="40" as="geometry" />
        </mxCell>
        <mxCell id="7LqxHddViOQpiFdT0loC-6" value="" style="endArrow=classic;html=1;rounded=0;entryX=0.5;entryY=1;entryDx=0;entryDy=0;" edge="1" parent="WIyWlLk6GJQsqaUBKTNV-1" target="7LqxHddViOQpiFdT0loC-7">
          <mxGeometry width="50" height="50" relative="1" as="geometry">
            <mxPoint x="80" y="148" as="sourcePoint" />
            <mxPoint x="100" y="100" as="targetPoint" />
          </mxGeometry>
        </mxCell>
        <mxCell id="7LqxHddViOQpiFdT0loC-7" value="Gender" style="ellipse;whiteSpace=wrap;html=1;" vertex="1" parent="WIyWlLk6GJQsqaUBKTNV-1">
          <mxGeometry x="60" y="30" width="60" height="40" as="geometry" />
        </mxCell>
        <mxCell id="7LqxHddViOQpiFdT0loC-8" style="edgeStyle=orthogonalEdgeStyle;rounded=0;orthogonalLoop=1;jettySize=auto;html=1;exitX=0.5;exitY=1;exitDx=0;exitDy=0;" edge="1" parent="WIyWlLk6GJQsqaUBKTNV-1" source="7LqxHddViOQpiFdT0loC-7" target="7LqxHddViOQpiFdT0loC-7">
          <mxGeometry relative="1" as="geometry" />
        </mxCell>
        <mxCell id="7LqxHddViOQpiFdT0loC-9" value="" style="endArrow=classic;html=1;rounded=0;entryX=0.294;entryY=0.906;entryDx=0;entryDy=0;entryPerimeter=0;" edge="1" parent="WIyWlLk6GJQsqaUBKTNV-1" target="7LqxHddViOQpiFdT0loC-10">
          <mxGeometry width="50" height="50" relative="1" as="geometry">
            <mxPoint x="110" y="150" as="sourcePoint" />
            <mxPoint x="150" y="80" as="targetPoint" />
          </mxGeometry>
        </mxCell>
        <mxCell id="7LqxHddViOQpiFdT0loC-10" value="Contact No." style="ellipse;whiteSpace=wrap;html=1;" vertex="1" parent="WIyWlLk6GJQsqaUBKTNV-1">
          <mxGeometry x="130" y="20" width="70" height="40" as="geometry" />
        </mxCell>
        <mxCell id="7LqxHddViOQpiFdT0loC-11" value="" style="endArrow=classic;html=1;rounded=0;exitX=0.958;exitY=0.044;exitDx=0;exitDy=0;exitPerimeter=0;" edge="1" parent="WIyWlLk6GJQsqaUBKTNV-1" source="7LqxHddViOQpiFdT0loC-16">
          <mxGeometry width="50" height="50" relative="1" as="geometry">
            <mxPoint x="140" y="150" as="sourcePoint" />
            <mxPoint x="190" y="100" as="targetPoint" />
          </mxGeometry>
        </mxCell>
        <mxCell id="7LqxHddViOQpiFdT0loC-12" value="&lt;u&gt;Patient ID&lt;/u&gt;" style="ellipse;whiteSpace=wrap;html=1;" vertex="1" parent="WIyWlLk6GJQsqaUBKTNV-1">
          <mxGeometry x="170" y="60" width="70" height="40" as="geometry" />
        </mxCell>
        <mxCell id="7LqxHddViOQpiFdT0loC-13" value="" style="endArrow=classic;html=1;rounded=0;exitX=0;exitY=0.143;exitDx=0;exitDy=0;exitPerimeter=0;entryX=1;entryY=0.5;entryDx=0;entryDy=0;" edge="1" parent="WIyWlLk6GJQsqaUBKTNV-1" target="7LqxHddViOQpiFdT0loC-14">
          <mxGeometry width="50" height="50" relative="1" as="geometry">
            <mxPoint x="20" y="160.00999999999988" as="sourcePoint" />
            <mxPoint x="-30" y="150" as="targetPoint" />
          </mxGeometry>
        </mxCell>
        <mxCell id="7LqxHddViOQpiFdT0loC-14" value="Address" style="ellipse;whiteSpace=wrap;html=1;" vertex="1" parent="WIyWlLk6GJQsqaUBKTNV-1">
          <mxGeometry x="-110" y="120" width="80" height="40" as="geometry" />
        </mxCell>
        <mxCell id="7LqxHddViOQpiFdT0loC-16" value="&lt;font style=&quot;font-size: 20px;&quot;&gt;Patient&lt;/font&gt;" style="rounded=1;whiteSpace=wrap;html=1;" vertex="1" parent="WIyWlLk6GJQsqaUBKTNV-1">
          <mxGeometry x="10" y="150" width="130" height="60" as="geometry" />
        </mxCell>
        <mxCell id="7LqxHddViOQpiFdT0loC-18" value="&lt;font style=&quot;font-size: 20px;&quot;&gt;Doctor&lt;/font&gt;" style="rounded=1;whiteSpace=wrap;html=1;" vertex="1" parent="WIyWlLk6GJQsqaUBKTNV-1">
          <mxGeometry x="-603" y="180" width="120" height="60" as="geometry" />
        </mxCell>
        <mxCell id="7LqxHddViOQpiFdT0loC-19" value="" style="endArrow=classic;html=1;rounded=0;exitX=-0.002;exitY=0.119;exitDx=0;exitDy=0;entryX=0.715;entryY=0.934;entryDx=0;entryDy=0;entryPerimeter=0;exitPerimeter=0;" edge="1" parent="WIyWlLk6GJQsqaUBKTNV-1" source="7LqxHddViOQpiFdT0loC-18">
          <mxGeometry width="50" height="50" relative="1" as="geometry">
            <mxPoint x="-605.1099999999999" y="183.07999999999993" as="sourcePoint" />
            <mxPoint x="-677.6499999999999" y="154.52999999999997" as="targetPoint" />
          </mxGeometry>
        </mxCell>
        <mxCell id="7LqxHddViOQpiFdT0loC-22" value="&lt;u&gt;&lt;font&gt;Doctor ID&lt;/font&gt;&lt;/u&gt;" style="ellipse;whiteSpace=wrap;html=1;fontSize=11;" vertex="1" parent="WIyWlLk6GJQsqaUBKTNV-1">
          <mxGeometry x="-763" y="130" width="87" height="40" as="geometry" />
        </mxCell>
        <mxCell id="7LqxHddViOQpiFdT0loC-25" value="" style="endArrow=classic;html=1;rounded=0;entryX=0.723;entryY=0.953;entryDx=0;entryDy=0;entryPerimeter=0;exitX=0.25;exitY=0;exitDx=0;exitDy=0;" edge="1" parent="WIyWlLk6GJQsqaUBKTNV-1" source="7LqxHddViOQpiFdT0loC-18" target="7LqxHddViOQpiFdT0loC-26">
          <mxGeometry width="50" height="50" relative="1" as="geometry">
            <mxPoint x="-593" y="180" as="sourcePoint" />
            <mxPoint x="-633" y="130" as="targetPoint" />
          </mxGeometry>
        </mxCell>
        <mxCell id="7LqxHddViOQpiFdT0loC-26" value="Name" style="ellipse;whiteSpace=wrap;html=1;" vertex="1" parent="WIyWlLk6GJQsqaUBKTNV-1">
          <mxGeometry x="-693" y="80" width="80" height="40" as="geometry" />
        </mxCell>
        <mxCell id="7LqxHddViOQpiFdT0loC-27" value="" style="endArrow=classic;html=1;rounded=0;entryX=0.405;entryY=0.964;entryDx=0;entryDy=0;entryPerimeter=0;exitX=0.416;exitY=0.001;exitDx=0;exitDy=0;exitPerimeter=0;" edge="1" parent="WIyWlLk6GJQsqaUBKTNV-1" source="7LqxHddViOQpiFdT0loC-18" target="7LqxHddViOQpiFdT0loC-28">
          <mxGeometry width="50" height="50" relative="1" as="geometry">
            <mxPoint x="-573" y="180" as="sourcePoint" />
            <mxPoint x="-573" y="120" as="targetPoint" />
          </mxGeometry>
        </mxCell>
        <mxCell id="7LqxHddViOQpiFdT0loC-28" value="Specialization" style="ellipse;whiteSpace=wrap;html=1;fontSize=13;" vertex="1" parent="WIyWlLk6GJQsqaUBKTNV-1">
          <mxGeometry x="-603" y="80" width="90" height="40" as="geometry" />
        </mxCell>
        <mxCell id="7LqxHddViOQpiFdT0loC-30" value="" style="endArrow=classic;html=1;rounded=0;entryX=0.289;entryY=0.97;entryDx=0;entryDy=0;entryPerimeter=0;exitX=0.684;exitY=0.03;exitDx=0;exitDy=0;exitPerimeter=0;" edge="1" parent="WIyWlLk6GJQsqaUBKTNV-1" source="7LqxHddViOQpiFdT0loC-18" target="7LqxHddViOQpiFdT0loC-31">
          <mxGeometry width="50" height="50" relative="1" as="geometry">
            <mxPoint x="-523" y="180" as="sourcePoint" />
            <mxPoint x="-473" y="130" as="targetPoint" />
          </mxGeometry>
        </mxCell>
        <mxCell id="7LqxHddViOQpiFdT0loC-31" value="Contact No." style="ellipse;whiteSpace=wrap;html=1;" vertex="1" parent="WIyWlLk6GJQsqaUBKTNV-1">
          <mxGeometry x="-503" y="70" width="90" height="40" as="geometry" />
        </mxCell>
        <mxCell id="7LqxHddViOQpiFdT0loC-32" value="" style="endArrow=classic;html=1;rounded=0;exitX=0.953;exitY=0.045;exitDx=0;exitDy=0;exitPerimeter=0;entryX=0.004;entryY=0.723;entryDx=0;entryDy=0;entryPerimeter=0;" edge="1" parent="WIyWlLk6GJQsqaUBKTNV-1" source="7LqxHddViOQpiFdT0loC-18">
          <mxGeometry width="50" height="50" relative="1" as="geometry">
            <mxPoint x="-493" y="178" as="sourcePoint" />
            <mxPoint x="-452.6400000000003" y="138.92000000000007" as="targetPoint" />
          </mxGeometry>
        </mxCell>
        <mxCell id="7LqxHddViOQpiFdT0loC-33" value="Email" style="ellipse;whiteSpace=wrap;html=1;" vertex="1" parent="WIyWlLk6GJQsqaUBKTNV-1">
          <mxGeometry x="-460" y="110" width="90" height="40" as="geometry" />
        </mxCell>
        <mxCell id="7LqxHddViOQpiFdT0loC-34" value="&lt;font style=&quot;font-size: 19px;&quot;&gt;Sensor_Data&lt;/font&gt;" style="rounded=1;whiteSpace=wrap;html=1;" vertex="1" parent="WIyWlLk6GJQsqaUBKTNV-1">
          <mxGeometry x="390" y="570" width="150" height="70" as="geometry" />
        </mxCell>
        <mxCell id="7LqxHddViOQpiFdT0loC-35" value="" style="endArrow=classic;html=1;rounded=0;exitX=0.084;exitY=-0.014;exitDx=0;exitDy=0;exitPerimeter=0;entryX=0.797;entryY=0.841;entryDx=0;entryDy=0;entryPerimeter=0;" edge="1" parent="WIyWlLk6GJQsqaUBKTNV-1" source="7LqxHddViOQpiFdT0loC-34" target="7LqxHddViOQpiFdT0loC-37">
          <mxGeometry width="50" height="50" relative="1" as="geometry">
            <mxPoint x="420" y="570" as="sourcePoint" />
            <mxPoint x="375.35533905932766" y="542.6776695296635" as="targetPoint" />
          </mxGeometry>
        </mxCell>
        <mxCell id="7LqxHddViOQpiFdT0loC-37" value="&lt;font&gt;&lt;u&gt;Data_ID&lt;/u&gt;&lt;/font&gt;" style="ellipse;whiteSpace=wrap;html=1;" vertex="1" parent="WIyWlLk6GJQsqaUBKTNV-1">
          <mxGeometry x="280" y="490" width="100" height="60" as="geometry" />
        </mxCell>
        <mxCell id="7LqxHddViOQpiFdT0loC-38" value="" style="endArrow=classic;html=1;rounded=0;" edge="1" parent="WIyWlLk6GJQsqaUBKTNV-1" target="7LqxHddViOQpiFdT0loC-39">
          <mxGeometry width="50" height="50" relative="1" as="geometry">
            <mxPoint x="430" y="570" as="sourcePoint" />
            <mxPoint x="420" y="510" as="targetPoint" />
          </mxGeometry>
        </mxCell>
        <mxCell id="7LqxHddViOQpiFdT0loC-39" value="Timestamp" style="ellipse;whiteSpace=wrap;html=1;" vertex="1" parent="WIyWlLk6GJQsqaUBKTNV-1">
          <mxGeometry x="350" y="440" width="90" height="50" as="geometry" />
        </mxCell>
        <mxCell id="7LqxHddViOQpiFdT0loC-40" value="" style="endArrow=classic;html=1;rounded=0;" edge="1" parent="WIyWlLk6GJQsqaUBKTNV-1" target="7LqxHddViOQpiFdT0loC-41">
          <mxGeometry width="50" height="50" relative="1" as="geometry">
            <mxPoint x="460" y="570" as="sourcePoint" />
            <mxPoint x="500" y="510" as="targetPoint" />
          </mxGeometry>
        </mxCell>
        <mxCell id="7LqxHddViOQpiFdT0loC-41" value="HeartRate" style="ellipse;whiteSpace=wrap;html=1;" vertex="1" parent="WIyWlLk6GJQsqaUBKTNV-1">
          <mxGeometry x="448" y="430" width="90" height="45" as="geometry" />
        </mxCell>
        <mxCell id="7LqxHddViOQpiFdT0loC-42" value="" style="endArrow=classic;html=1;rounded=0;" edge="1" parent="WIyWlLk6GJQsqaUBKTNV-1" target="7LqxHddViOQpiFdT0loC-43">
          <mxGeometry width="50" height="50" relative="1" as="geometry">
            <mxPoint x="490" y="570" as="sourcePoint" />
            <mxPoint x="560" y="500" as="targetPoint" />
          </mxGeometry>
        </mxCell>
        <mxCell id="7LqxHddViOQpiFdT0loC-43" value="BodyTemperature" style="ellipse;whiteSpace=wrap;html=1;fontSize=12;" vertex="1" parent="WIyWlLk6GJQsqaUBKTNV-1">
          <mxGeometry x="540" y="430" width="110" height="70" as="geometry" />
        </mxCell>
        <mxCell id="7LqxHddViOQpiFdT0loC-44" value="" style="endArrow=classic;html=1;rounded=0;" edge="1" parent="WIyWlLk6GJQsqaUBKTNV-1">
          <mxGeometry width="50" height="50" relative="1" as="geometry">
            <mxPoint x="540" y="590" as="sourcePoint" />
            <mxPoint x="590" y="550" as="targetPoint" />
          </mxGeometry>
        </mxCell>
        <mxCell id="7LqxHddViOQpiFdT0loC-45" value="OxygenLevel" style="ellipse;whiteSpace=wrap;html=1;" vertex="1" parent="WIyWlLk6GJQsqaUBKTNV-1">
          <mxGeometry x="580" y="510" width="90" height="50" as="geometry" />
        </mxCell>
        <mxCell id="7LqxHddViOQpiFdT0loC-47" value="&lt;font style=&quot;font-size: 19px;&quot;&gt;Appointment&lt;/font&gt;" style="rounded=1;whiteSpace=wrap;html=1;" vertex="1" parent="WIyWlLk6GJQsqaUBKTNV-1">
          <mxGeometry x="-430" y="555" width="150" height="60" as="geometry" />
        </mxCell>
        <mxCell id="7LqxHddViOQpiFdT0loC-48" value="" style="endArrow=classic;html=1;rounded=0;entryX=0.589;entryY=1.01;entryDx=0;entryDy=0;entryPerimeter=0;exitX=0.043;exitY=0.071;exitDx=0;exitDy=0;exitPerimeter=0;" edge="1" parent="WIyWlLk6GJQsqaUBKTNV-1" source="7LqxHddViOQpiFdT0loC-47" target="7LqxHddViOQpiFdT0loC-50">
          <mxGeometry width="50" height="50" relative="1" as="geometry">
            <mxPoint x="-430" y="555" as="sourcePoint" />
            <mxPoint x="-430" y="495" as="targetPoint" />
          </mxGeometry>
        </mxCell>
        <mxCell id="7LqxHddViOQpiFdT0loC-50" value="&lt;u&gt;AppointmentID&lt;/u&gt;" style="ellipse;whiteSpace=wrap;html=1;" vertex="1" parent="WIyWlLk6GJQsqaUBKTNV-1">
          <mxGeometry x="-573.5" y="475" width="100" height="50" as="geometry" />
        </mxCell>
        <mxCell id="7LqxHddViOQpiFdT0loC-51" value="" style="endArrow=classic;html=1;rounded=0;" edge="1" parent="WIyWlLk6GJQsqaUBKTNV-1">
          <mxGeometry width="50" height="50" relative="1" as="geometry">
            <mxPoint x="-390" y="555" as="sourcePoint" />
            <mxPoint x="-400" y="475" as="targetPoint" />
          </mxGeometry>
        </mxCell>
        <mxCell id="7LqxHddViOQpiFdT0loC-52" value="Date" style="ellipse;whiteSpace=wrap;html=1;" vertex="1" parent="WIyWlLk6GJQsqaUBKTNV-1">
          <mxGeometry x="-450" y="425" width="90" height="50" as="geometry" />
        </mxCell>
        <mxCell id="7LqxHddViOQpiFdT0loC-53" value="" style="endArrow=classic;html=1;rounded=0;exitX=0.648;exitY=-0.008;exitDx=0;exitDy=0;exitPerimeter=0;" edge="1" parent="WIyWlLk6GJQsqaUBKTNV-1" source="7LqxHddViOQpiFdT0loC-47" target="7LqxHddViOQpiFdT0loC-54">
          <mxGeometry width="50" height="50" relative="1" as="geometry">
            <mxPoint x="-360" y="555" as="sourcePoint" />
            <mxPoint x="-330" y="485" as="targetPoint" />
          </mxGeometry>
        </mxCell>
        <mxCell id="7LqxHddViOQpiFdT0loC-54" value="Time" style="ellipse;whiteSpace=wrap;html=1;" vertex="1" parent="WIyWlLk6GJQsqaUBKTNV-1">
          <mxGeometry x="-350" y="420" width="90" height="60" as="geometry" />
        </mxCell>
        <mxCell id="7LqxHddViOQpiFdT0loC-55" value="" style="endArrow=classic;html=1;rounded=0;exitX=0.875;exitY=-0.008;exitDx=0;exitDy=0;exitPerimeter=0;entryX=0;entryY=1;entryDx=0;entryDy=0;" edge="1" parent="WIyWlLk6GJQsqaUBKTNV-1" source="7LqxHddViOQpiFdT0loC-47" target="7LqxHddViOQpiFdT0loC-56">
          <mxGeometry width="50" height="50" relative="1" as="geometry">
            <mxPoint x="-280" y="560" as="sourcePoint" />
            <mxPoint x="-250" y="495" as="targetPoint" />
          </mxGeometry>
        </mxCell>
        <mxCell id="7LqxHddViOQpiFdT0loC-56" value="Status" style="ellipse;whiteSpace=wrap;html=1;" vertex="1" parent="WIyWlLk6GJQsqaUBKTNV-1">
          <mxGeometry x="-250" y="455" width="90" height="50" as="geometry" />
        </mxCell>
        <mxCell id="7LqxHddViOQpiFdT0loC-57" value="&lt;font style=&quot;font-size: 20px;&quot;&gt;Alert&lt;/font&gt;" style="rounded=1;whiteSpace=wrap;html=1;" vertex="1" parent="WIyWlLk6GJQsqaUBKTNV-1">
          <mxGeometry x="-60" y="860" width="180" height="60" as="geometry" />
        </mxCell>
        <mxCell id="7LqxHddViOQpiFdT0loC-58" value="" style="endArrow=classic;html=1;rounded=0;exitX=0.25;exitY=0;exitDx=0;exitDy=0;entryX=0.5;entryY=1;entryDx=0;entryDy=0;" edge="1" parent="WIyWlLk6GJQsqaUBKTNV-1" source="7LqxHddViOQpiFdT0loC-57" target="7LqxHddViOQpiFdT0loC-59">
          <mxGeometry width="50" height="50" relative="1" as="geometry">
            <mxPoint x="-40" y="860" as="sourcePoint" />
            <mxPoint x="-90" y="820" as="targetPoint" />
            <Array as="points" />
          </mxGeometry>
        </mxCell>
        <mxCell id="7LqxHddViOQpiFdT0loC-59" value="&lt;u&gt;AlertID&lt;/u&gt;" style="ellipse;whiteSpace=wrap;html=1;" vertex="1" parent="WIyWlLk6GJQsqaUBKTNV-1">
          <mxGeometry x="-130" y="740" width="110" height="60" as="geometry" />
        </mxCell>
        <mxCell id="7LqxHddViOQpiFdT0loC-60" value="" style="endArrow=classic;html=1;rounded=0;exitX=0.5;exitY=0;exitDx=0;exitDy=0;" edge="1" parent="WIyWlLk6GJQsqaUBKTNV-1" source="7LqxHddViOQpiFdT0loC-57">
          <mxGeometry width="50" height="50" relative="1" as="geometry">
            <mxPoint x="-20" y="856" as="sourcePoint" />
            <mxPoint x="40" y="750" as="targetPoint" />
            <Array as="points">
              <mxPoint x="40" y="750" />
            </Array>
          </mxGeometry>
        </mxCell>
        <mxCell id="7LqxHddViOQpiFdT0loC-61" value="Message" style="ellipse;whiteSpace=wrap;html=1;" vertex="1" parent="WIyWlLk6GJQsqaUBKTNV-1">
          <mxGeometry x="10" y="690" width="110" height="60" as="geometry" />
        </mxCell>
        <mxCell id="7LqxHddViOQpiFdT0loC-62" value="" style="endArrow=classic;html=1;rounded=0;" edge="1" parent="WIyWlLk6GJQsqaUBKTNV-1" target="7LqxHddViOQpiFdT0loC-63">
          <mxGeometry width="50" height="50" relative="1" as="geometry">
            <mxPoint x="50" y="860" as="sourcePoint" />
            <mxPoint x="100" y="810" as="targetPoint" />
          </mxGeometry>
        </mxCell>
        <mxCell id="7LqxHddViOQpiFdT0loC-63" value="Timestamp" style="ellipse;whiteSpace=wrap;html=1;" vertex="1" parent="WIyWlLk6GJQsqaUBKTNV-1">
          <mxGeometry x="100" y="730" width="130" height="60" as="geometry" />
        </mxCell>
        <mxCell id="7LqxHddViOQpiFdT0loC-64" value="&lt;font style=&quot;font-size: 18px;&quot;&gt;Has_Data&lt;/font&gt;" style="rhombus;whiteSpace=wrap;html=1;" vertex="1" parent="WIyWlLk6GJQsqaUBKTNV-1">
          <mxGeometry x="90" y="380" width="130" height="85" as="geometry" />
        </mxCell>
        <mxCell id="7LqxHddViOQpiFdT0loC-65" value="" style="endArrow=none;html=1;rounded=0;exitX=0.5;exitY=0;exitDx=0;exitDy=0;entryX=0.597;entryY=1.022;entryDx=0;entryDy=0;entryPerimeter=0;" edge="1" parent="WIyWlLk6GJQsqaUBKTNV-1" source="7LqxHddViOQpiFdT0loC-64" target="7LqxHddViOQpiFdT0loC-16">
          <mxGeometry width="50" height="50" relative="1" as="geometry">
            <mxPoint x="120" y="290" as="sourcePoint" />
            <mxPoint x="80" y="210" as="targetPoint" />
          </mxGeometry>
        </mxCell>
        <mxCell id="7LqxHddViOQpiFdT0loC-66" value="" style="endArrow=none;html=1;rounded=0;entryX=0.5;entryY=1;entryDx=0;entryDy=0;exitX=0;exitY=0.5;exitDx=0;exitDy=0;" edge="1" parent="WIyWlLk6GJQsqaUBKTNV-1" source="7LqxHddViOQpiFdT0loC-34" target="7LqxHddViOQpiFdT0loC-64">
          <mxGeometry width="50" height="50" relative="1" as="geometry">
            <mxPoint x="120" y="425" as="sourcePoint" />
            <mxPoint x="170" y="375" as="targetPoint" />
          </mxGeometry>
        </mxCell>
        <mxCell id="7LqxHddViOQpiFdT0loC-67" value="&lt;font style=&quot;font-size: 21px;&quot;&gt;Books&lt;/font&gt;" style="rhombus;whiteSpace=wrap;html=1;" vertex="1" parent="WIyWlLk6GJQsqaUBKTNV-1">
          <mxGeometry x="-130" y="350" width="145" height="70" as="geometry" />
        </mxCell>
        <mxCell id="7LqxHddViOQpiFdT0loC-68" value="" style="endArrow=none;html=1;rounded=0;exitX=0.5;exitY=0;exitDx=0;exitDy=0;" edge="1" parent="WIyWlLk6GJQsqaUBKTNV-1" source="7LqxHddViOQpiFdT0loC-67">
          <mxGeometry width="50" height="50" relative="1" as="geometry">
            <mxPoint x="-40" y="260" as="sourcePoint" />
            <mxPoint x="50" y="210" as="targetPoint" />
          </mxGeometry>
        </mxCell>
        <mxCell id="7LqxHddViOQpiFdT0loC-69" value="" style="endArrow=none;html=1;rounded=0;entryX=0.5;entryY=1;entryDx=0;entryDy=0;" edge="1" parent="WIyWlLk6GJQsqaUBKTNV-1" target="7LqxHddViOQpiFdT0loC-67">
          <mxGeometry width="50" height="50" relative="1" as="geometry">
            <mxPoint x="-279" y="585" as="sourcePoint" />
            <mxPoint x="-70" y="375" as="targetPoint" />
          </mxGeometry>
        </mxCell>
        <mxCell id="7LqxHddViOQpiFdT0loC-70" value="&lt;font style=&quot;font-size: 19px;&quot;&gt;Attends&lt;/font&gt;" style="rhombus;whiteSpace=wrap;html=1;rotation=0;" vertex="1" parent="WIyWlLk6GJQsqaUBKTNV-1">
          <mxGeometry x="-600" y="300" width="153" height="80" as="geometry" />
        </mxCell>
        <mxCell id="7LqxHddViOQpiFdT0loC-71" value="" style="endArrow=none;html=1;rounded=0;exitX=0.5;exitY=0;exitDx=0;exitDy=0;" edge="1" parent="WIyWlLk6GJQsqaUBKTNV-1" source="7LqxHddViOQpiFdT0loC-70">
          <mxGeometry width="50" height="50" relative="1" as="geometry">
            <mxPoint x="-583" y="290" as="sourcePoint" />
            <mxPoint x="-533" y="240" as="targetPoint" />
          </mxGeometry>
        </mxCell>
        <mxCell id="7LqxHddViOQpiFdT0loC-72" value="" style="endArrow=none;html=1;rounded=0;exitX=0.149;exitY=0.027;exitDx=0;exitDy=0;exitPerimeter=0;entryX=0.5;entryY=1;entryDx=0;entryDy=0;" edge="1" parent="WIyWlLk6GJQsqaUBKTNV-1" target="7LqxHddViOQpiFdT0loC-70">
          <mxGeometry width="50" height="50" relative="1" as="geometry">
            <mxPoint x="-407.0000000000001" y="555" as="sourcePoint" />
            <mxPoint x="-480" y="370" as="targetPoint" />
          </mxGeometry>
        </mxCell>
        <mxCell id="7LqxHddViOQpiFdT0loC-74" value="&lt;font style=&quot;font-size: 21px;&quot;&gt;Receives&lt;/font&gt;" style="rhombus;whiteSpace=wrap;html=1;" vertex="1" parent="WIyWlLk6GJQsqaUBKTNV-1">
          <mxGeometry x="-100" y="545" width="150" height="80" as="geometry" />
        </mxCell>
        <mxCell id="7LqxHddViOQpiFdT0loC-75" value="" style="endArrow=none;html=1;rounded=0;exitX=0.533;exitY=0;exitDx=0;exitDy=0;exitPerimeter=0;entryX=0.423;entryY=0.989;entryDx=0;entryDy=0;entryPerimeter=0;" edge="1" parent="WIyWlLk6GJQsqaUBKTNV-1" source="7LqxHddViOQpiFdT0loC-74" target="7LqxHddViOQpiFdT0loC-16">
          <mxGeometry width="50" height="50" relative="1" as="geometry">
            <mxPoint x="30" y="450" as="sourcePoint" />
            <mxPoint x="70" y="210" as="targetPoint" />
          </mxGeometry>
        </mxCell>
        <mxCell id="7LqxHddViOQpiFdT0loC-76" value="" style="endArrow=none;html=1;rounded=0;entryX=0.5;entryY=1;entryDx=0;entryDy=0;exitX=0.382;exitY=0.019;exitDx=0;exitDy=0;exitPerimeter=0;" edge="1" parent="WIyWlLk6GJQsqaUBKTNV-1" source="7LqxHddViOQpiFdT0loC-57" target="7LqxHddViOQpiFdT0loC-74">
          <mxGeometry width="50" height="50" relative="1" as="geometry">
            <mxPoint y="790" as="sourcePoint" />
            <mxPoint x="-30" y="640" as="targetPoint" />
          </mxGeometry>
        </mxCell>
      </root>
    </mxGraphModel>
  </diagram>
</mxfile>
